<svg width="1600" height="1600" viewBox="0 0 1600 1600" xmlns="http://www.w3.org/2000/svg">
  <defs>
    <linearGradient id="bg" x1="0" y1="0" x2="1" y2="1">
      <stop offset="0%" stop-color="#10203d"/>
      <stop offset="60%" stop-color="#173b6d"/>
      <stop offset="100%" stop-color="#1cb5a3"/>
    </linearGradient>
    <radialGradient id="halo" cx="50%" cy="45%" r="60%">
      <stop offset="0%" stop-color="#9bf6ff" stop-opacity="0.55"/>
      <stop offset="100%" stop-color="#9bf6ff" stop-opacity="0"/>
    </radialGradient>
    <linearGradient id="disc" x1="0" y1="0" x2="1" y2="1">
      <stop offset="0%" stop-color="#ecf8ff"/>
      <stop offset="100%" stop-color="#8fb7ff"/>
    </linearGradient>
    <linearGradient id="shield" x1="0" y1="0" x2="0" y2="1">
      <stop offset="0%" stop-color="#9dfce9"/>
      <stop offset="100%" stop-color="#14d8b4"/>
    </linearGradient>
  </defs>

  <rect x="40" y="40" width="1520" height="1520" rx="300" fill="url(#bg)"/>
  <circle cx="800" cy="760" r="540" fill="url(#halo)"/>

  <circle cx="760" cy="760" r="430" fill="#0f2448" opacity="0.45"/>
  <circle cx="760" cy="760" r="360" fill="url(#disc)"/>
  <circle cx="760" cy="760" r="225" fill="#1f3f74" opacity="0.32"/>
  <circle cx="760" cy="760" r="72" fill="#f4fbff"/>
  <circle cx="760" cy="760" r="28" fill="#173a66"/>

  <path d="M760 400c155 0 296 98 350 245L850 905A360 360 0 0 1 760 400z" fill="#3be4d0" opacity="0.84"/>

  <g transform="translate(1035 960)">
    <path d="M145 18v168c0 141-99 263-238 293C-232 449-331 327-331 186V18l238-92z" fill="url(#shield)"/>
    <path d="M-167 186l58 58 129-129" fill="none" stroke="#0f5b64" stroke-width="48" stroke-linecap="round" stroke-linejoin="round"/>
  </g>

  <g fill="#d8fff8" opacity="0.95">
    <circle cx="1230" cy="355" r="12"/>
    <circle cx="1325" cy="425" r="9"/>
    <circle cx="1190" cy="475" r="8"/>
  </g>
</svg>
